<svg width="375" height="373" viewBox="0 0 375 373" fill="none" xmlns="http://www.w3.org/2000/svg">
<path d="M260.854 217L301.427 257.573L259 300L218 259L218 312L158 312L158 259.854L117.579 300.274L75.1523 257.848L116 217L63 217L63 157L116 157L75.1523 116.152L117.579 73.7256L158 114.146L158 62L218 62L218 115L259 74L301.427 116.427L260.854 157L313 157L313 217L260.854 217Z" fill="#078AFF"/>
<path d="M218 217H63V157H158V62H218V217Z" fill="#E4F2FD"/>
<path d="M216.514 172.588L174.088 215.014L29.6039 70.5303L72.0303 28.1039L216.514 172.588Z" fill="#E4F2FD"/>
</svg>
